<?xml version="1.0" encoding="UTF-8"?>
<!DOCTYPE svg PUBLIC "-//W3C//DTD SVG 1.0//EN" "http://www.w3.org/TR/2001/REC-SVG-20010904/DTD/svg10.dtd">
<!-- Creator: CorelDRAW 2021 (64-Bit) -->
<svg xmlns="http://www.w3.org/2000/svg" xml:space="preserve" width="500px" height="475px" version="1.0" shape-rendering="geometricPrecision" text-rendering="geometricPrecision" image-rendering="optimizeQuality" fill-rule="evenodd" clip-rule="evenodd"
viewBox="0 0 212000 201000"
 xmlns:xlink="http://www.w3.org/1999/xlink"
 xmlns:xodm="http://www.corel.com/coreldraw/odm/2003">
 <g id="Layer_x0020_1">
  <metadata id="CorelCorpID_0Corel-Layer"/>
  <g id="_3039797847968">
   <ellipse fill="#3F0000" cx="106000" cy="101000" rx="106000" ry="101000"/>
   <path fill="white" d="M105000 52000c0,0 1000,0 1000,0l1000 0c15000,0 28000,7000 39000,21000 6000,8000 9000,17000 10000,26000l0 6000c0,8000 -3000,17000 -10000,27000 -11000,14000 -25000,21000 -41000,21000 -18000,0 -33000,-8000 -44000,-25000 -4000,-8000 -7000,-16000 -7000,-25000l0 0c0,-20000 10000,-35000 29000,-46000 7000,-3000 14000,-5000 20000,-5000l1000 0c0,0 1000,0 1000,0zm83000 78000c2000,-4000 7000,-6000 11000,-4000 4000,1000 6000,6000 4000,10000 -7000,19000 -21000,35000 -38000,46000 -17000,11000 -37000,18000 -59000,18000 -24000,0 -47000,-9000 -65000,-22000 -18000,-14000 -31000,-34000 -36000,-57000 -1000,-4000 2000,-9000 6000,-9000 4000,-1000 9000,1000 10000,6000 4000,19000 15000,35000 30000,47000 15000,11000 35000,18000 55000,18000 19000,0 36000,-5000 50000,-14000 14000,-10000 26000,-23000 32000,-39000zm-97000 -49000l0 0c8000,9000 16000,16000 22000,22000l7000 -6000 0 -1000c-17000,-9000 -27000,-14000 -29000,-15000l0 0zm-4000 3000l0 39000c0,1000 1000,2000 1000,2000l2000 0c6000,-6000 13000,-13000 21000,-21000l0 0c-9000,-8000 -16000,-16000 -22000,-22000 -1000,0 -1000,1000 -2000,2000zm29000 21000c4000,4000 6000,6000 6000,6000 7000,-3000 10000,-5000 10000,-6000l0 -1000c-1000,-1000 -4000,-3000 -9000,-6000l-1000 0c-4000,4000 -6000,6000 -6000,7000zm-24000 23000l1000 0c17000,-10000 25000,-15000 26000,-15000l-6000 -6000 0 0c-7000,6000 -14000,13000 -21000,21000z"/>
  </g>
 </g>
</svg>
