<?xml version="1.0" encoding="UTF-8"?>
<!DOCTYPE svg PUBLIC "-//W3C//DTD SVG 1.0//EN" "http://www.w3.org/TR/2001/REC-SVG-20010904/DTD/svg10.dtd">
<!-- Creator: CorelDRAW 2021 (64-Bit) -->
<svg xmlns="http://www.w3.org/2000/svg" xml:space="preserve" width="500px" height="475px" version="1.0" shape-rendering="geometricPrecision" text-rendering="geometricPrecision" image-rendering="optimizeQuality" fill-rule="evenodd" clip-rule="evenodd"
viewBox="0 0 215000 203000"
 xmlns:xlink="http://www.w3.org/1999/xlink"
 xmlns:xodm="http://www.corel.com/coreldraw/odm/2003">
 <g id="Layer_x0020_1">
  <metadata id="CorelCorpID_0Corel-Layer"/>
  <ellipse fill="#7F0000" cx="107000" cy="102000" rx="107000" ry="102000"/>
  <path fill="white" d="M102000 52000l7000 0c8000,0 17000,4000 27000,10000 8000,6000 13000,13000 16000,21000 3000,7000 5000,13000 5000,18000l0 4000c0,12000 -5000,23000 -14000,34000 -11000,11000 -23000,16000 -38000,16000 -18000,0 -32000,-8000 -44000,-25000 -4000,-9000 -7000,-18000 -7000,-27000 0,-14000 6000,-27000 18000,-38000 11000,-8000 21000,-13000 30000,-13000zm94000 50000c0,-5000 4000,-9000 8000,-9000 5000,0 9000,4000 9000,9000 0,27000 -12000,52000 -31000,71000 -19000,18000 -45000,29000 -74000,29000 -25000,0 -48000,-8000 -66000,-22000 -19000,-14000 -32000,-34000 -37000,-57000 -1000,-5000 2000,-9000 6000,-10000 5000,-1000 9000,2000 10000,6000 4000,19000 15000,36000 31000,47000 15000,12000 35000,19000 56000,19000 24000,0 46000,-9000 62000,-24000 16000,-15000 26000,-36000 26000,-59000zm-118000 -5000l0 16000c0,8000 3000,14000 8000,17000 3000,1000 11000,2000 24000,2000 10000,0 16000,-2000 18000,-4000 3000,-3000 5000,-7000 5000,-14000l0 -20000c0,-8000 -3000,-13000 -9000,-16000l-3000 -1000 -4000 0 -22000 0c-8000,0 -14000,4000 -16000,11000 -1000,3000 -1000,5000 -1000,9000zm17000 -15000l22000 0c7000,0 11000,4000 11000,12000l0 21000c-1000,8000 -4000,12000 -9000,12000l-9000 0c-4000,0 -8000,0 -13000,0 -8000,0 -12000,-2000 -13000,-7000 -1000,-3000 -1000,-7000 -1000,-13000l0 -6000c0,-10000 1000,-15000 2000,-15000 2000,-3000 5000,-4000 10000,-4000zm22000 8000c1000,2000 2000,3000 3000,3000 2000,0 3000,-1000 4000,-3000 -1000,-3000 -2000,-4000 -4000,-4000 -2000,1000 -3000,2000 -3000,4000zm-25000 14000c0,7000 3000,12000 11000,14000l6000 0c7000,-3000 11000,-7000 11000,-14000l0 -1000c0,-3000 -2000,-7000 -6000,-10000 -3000,-2000 -5000,-3000 -8000,-3000l0 0c-7000,0 -11000,3000 -14000,10000 0,0 0,2000 0,4000zm14000 -9000l0 0c4000,0 7000,2000 9000,7000 0,0 0,1000 0,2000 -1000,6000 -4000,10000 -9000,10000 -4000,0 -7000,-2000 -9000,-7000 0,0 0,-1000 -1000,-3000 1000,-6000 4000,-9000 10000,-9000z"/>
 </g>
</svg>
