<?xml version="1.0" encoding="UTF-8"?>
<!DOCTYPE svg PUBLIC "-//W3C//DTD SVG 1.0//EN" "http://www.w3.org/TR/2001/REC-SVG-20010904/DTD/svg10.dtd">
<!-- Creator: CorelDRAW 2021 (64-Bit) -->
<svg xmlns="http://www.w3.org/2000/svg" xml:space="preserve" width="500px" height="475px" version="1.0" shape-rendering="geometricPrecision" text-rendering="geometricPrecision" image-rendering="optimizeQuality" fill-rule="evenodd" clip-rule="evenodd"
viewBox="0 0 217000 206000"
 xmlns:xlink="http://www.w3.org/1999/xlink"
 xmlns:xodm="http://www.corel.com/coreldraw/odm/2003">
 <g id="Layer_x0020_1">
  <metadata id="CorelCorpID_0Corel-Layer"/>
  <g id="_3004136446000">
   <ellipse fill="#BF0000" cx="109000" cy="103000" rx="109000" ry="103000"/>
   <path fill="white" d="M106000 53000l3000 0c10000,0 21000,4000 32000,12000 8000,8000 13000,16000 15000,22000 1000,3000 2000,6000 2000,9000 1000,4000 1000,6000 1000,7000l0 3000 0 2000c-1000,7000 -3000,14000 -5000,19000 -5000,11000 -14000,19000 -25000,24000 -8000,4000 -15000,5000 -21000,5000l-1000 0c-13000,0 -25000,-4000 -35000,-14000 -7000,-7000 -11000,-13000 -13000,-18000 -2000,-4000 -3000,-9000 -3000,-16000l0 -6000c0,-11000 4000,-21000 13000,-32000 11000,-12000 24000,-17000 37000,-17000zm-9000 134000c4000,0 8000,4000 7000,9000 -1000,4000 -5000,8000 -9000,7000 -27000,-3000 -50000,-16000 -66000,-33000 -17000,-18000 -26000,-42000 -26000,-67000 0,-15000 3000,-29000 9000,-42000 6000,-12000 15000,-24000 26000,-34000 4000,-3000 9000,-2000 12000,1000 3000,4000 3000,9000 -1000,12000 -9000,8000 -17000,18000 -22000,29000 -5000,10000 -8000,22000 -8000,34000 0,21000 9000,40000 22000,55000 14000,15000 34000,26000 56000,29000zm-10000 -101000l0 2000c0,3000 2000,4000 5000,4000 3000,0 5000,-1000 6000,-4000l0 -1000c0,-3000 -2000,-5000 -6000,-5000 -2000,0 -4000,1000 -5000,4000zm26000 13000l-1000 0 0 -3000 -10000 0 0 29000c1000,1000 1000,1000 1000,1000l9000 0c0,0 0,0 0,-1000l0 -15000c1000,-4000 2000,-7000 5000,-7000 4000,0 6000,3000 6000,7000l0 15000c0,1000 0,1000 0,1000l9000 0 0 -19000c0,-4000 -1000,-7000 -4000,-10000 -3000,-1000 -4000,-1000 -5000,-1000l-3000 0c-2000,0 -5000,1000 -7000,3000zm-26000 -2000l0 28000c0,1000 0,1000 1000,1000l8000 0c1000,0 1000,0 1000,-1000l0 -27000 -1000 -2000 -8000 0c-1000,0 -1000,1000 -1000,1000z"/>
  </g>
 </g>
</svg>
