<?xml version="1.0" encoding="UTF-8"?>
<!DOCTYPE svg PUBLIC "-//W3C//DTD SVG 1.0//EN" "http://www.w3.org/TR/2001/REC-SVG-20010904/DTD/svg10.dtd">
<!-- Creator: CorelDRAW 2021 (64-Bit) -->
<svg xmlns="http://www.w3.org/2000/svg" xml:space="preserve" width="500px" height="475px" version="1.0" shape-rendering="geometricPrecision" text-rendering="geometricPrecision" image-rendering="optimizeQuality" fill-rule="evenodd" clip-rule="evenodd"
viewBox="0 0 220000 208000"
 xmlns:xlink="http://www.w3.org/1999/xlink"
 xmlns:xodm="http://www.corel.com/coreldraw/odm/2003">
 <g id="Layer_x0020_1">
  <metadata id="CorelCorpID_0Corel-Layer"/>
  <g id="_3039508005728">
   <ellipse fill="red" cx="110000" cy="104000" rx="110000" ry="104000"/>
   <path fill="white" d="M107000 53000l3000 0c13000,0 25000,6000 37000,17000 8000,10000 12000,19000 13000,27000 1000,3000 1000,6000 1000,7000l0 4000c0,7000 -2000,15000 -7000,25000 -7000,11000 -17000,19000 -30000,23000 -6000,2000 -11000,3000 -15000,3000l-1000 0c-14000,0 -26000,-6000 -38000,-16000 -9000,-11000 -14000,-24000 -14000,-38000l0 -1000c0,0 0,-1000 0,-1000 0,0 0,0 0,0 1000,-10000 4000,-19000 8000,-25000 6000,-10000 16000,-18000 30000,-22000 5000,-2000 9000,-3000 13000,-3000zm0 136000c5000,0 8000,4000 8000,9000 0,5000 -4000,8000 -8000,8000 -25000,-1000 -48000,-9000 -66000,-23000 -18000,-15000 -31000,-35000 -36000,-58000 -1000,-4000 2000,-9000 6000,-10000 5000,-1000 9000,2000 10000,7000 5000,19000 16000,35000 31000,47000 15000,12000 34000,20000 55000,20000zm-7000 -102000l0 10000c0,0 0,0 -1000,1000l-5000 0 0 11000 5000 0c0,0 1000,0 1000,1000l0 26000 0 2000 11000 0 0 -29000c0,0 0,0 1000,0l9000 0c0,0 1000,-4000 1000,-11000l0 0 -10000 0c-1000,0 -1000,-1000 -1000,-1000l0 -7000c0,-4000 2000,-5000 6000,-6000l6000 0 0 -9000c0,-1000 -2000,-1000 -7000,-1000l-1000 0c-7000,0 -12000,3000 -14000,8000 -1000,1000 -1000,3000 -1000,5000z"/>
  </g>
 </g>
</svg>
